<?xml version="1.0" encoding="UTF-8" standalone="no"?>
<svg
   width="720"
   height="960"
   overflow="hidden"
   version="1.1"
   id="svg193"
   sodipodi:docname="Figure1.svg"
   inkscape:export-filename="..\..\..\Downloads\Figure1.svg"
   inkscape:export-xdpi="96"
   inkscape:export-ydpi="96"
   inkscape:version="1.2.1 (9c6d41e410, 2022-07-14)"
   xmlns:inkscape="http://www.inkscape.org/namespaces/inkscape"
   xmlns:sodipodi="http://sodipodi.sourceforge.net/DTD/sodipodi-0.dtd"
   xmlns="http://www.w3.org/2000/svg"
   xmlns:svg="http://www.w3.org/2000/svg">
  <sodipodi:namedview
     id="namedview195"
     pagecolor="#ffffff"
     bordercolor="#000000"
     borderopacity="0.25"
     inkscape:showpageshadow="2"
     inkscape:pageopacity="0.0"
     inkscape:pagecheckerboard="0"
     inkscape:deskcolor="#d1d1d1"
     showgrid="false"
     inkscape:zoom="0.84791667"
     inkscape:cx="360.29484"
     inkscape:cy="480.58968"
     inkscape:window-width="1920"
     inkscape:window-height="1001"
     inkscape:window-x="-9"
     inkscape:window-y="-9"
     inkscape:window-maximized="1"
     inkscape:current-layer="svg193" />
  <defs
     id="defs5">
    <clipPath
       id="clip0">
      <rect
         x="0"
         y="0"
         width="720"
         height="960"
         id="rect2" />
    </clipPath>
  </defs>
  <g
     clip-path="url(#clip0)"
     id="g191">
    <rect
       x="0"
       y="0"
       width="720"
       height="960"
       fill="#FFFFFF"
       id="rect7" />
    <path
       d="M60 80.3337C60 70.7606 67.7605 63 77.3337 63L174.666 63C184.239 63 192 70.7606 192 80.3337L192 149.666C192 159.239 184.239 167 174.666 167L77.3337 167C67.7605 167 60 159.239 60 149.666Z"
       stroke="#000000"
       stroke-width="2"
       stroke-miterlimit="8"
       fill="none"
       fill-rule="evenodd"
       id="path9" />
    <text
       font-family="Calibri,Calibri_MSFontService,sans-serif"
       font-weight="400"
       font-size="13"
       transform="translate(84.6911 87)"
       id="text11">Functional trait</text>
    <text
       font-family="Calibri,Calibri_MSFontService,sans-serif"
       font-weight="400"
       font-size="13"
       transform="translate(78.1911 103)"
       id="text13">data from 28 wild</text>
    <text
       font-family="Calibri,Calibri_MSFontService,sans-serif"
       font-weight="400"
       font-size="13"
       transform="translate(87.6111 119)"
       id="text15">species</text>
    <text
       font-family="Calibri,Calibri_MSFontService,sans-serif"
       font-weight="400"
       font-size="13"
       transform="translate(129.944 119)"
       id="text17">grown</text>
    <text
       font-family="Calibri,Calibri_MSFontService,sans-serif"
       font-weight="400"
       font-size="13"
       transform="translate(84.3578 135)"
       id="text19">under</text>
    <text
       font-family="Calibri,Calibri_MSFontService,sans-serif"
       font-weight="400"
       font-size="13"
       transform="translate(119.691 135)"
       id="text21">common</text>
    <text
       font-family="Calibri,Calibri_MSFontService,sans-serif"
       font-weight="400"
       font-size="13"
       transform="translate(77.3578 151)"
       id="text23">garden conditions</text>
    <path
       d="M216 136.667C216 131.328 220.328 127 225.667 127L337.333 127C342.672 127 347 131.328 347 136.667L347 175.333C347 180.672 342.672 185 337.333 185L225.667 185C220.328 185 216 180.672 216 175.333Z"
       stroke="#000000"
       stroke-width="2"
       stroke-miterlimit="8"
       fill="none"
       fill-rule="evenodd"
       id="path25" />
    <text
       font-family="Calibri,Calibri_MSFontService,sans-serif"
       font-weight="400"
       font-size="13"
       transform="translate(234.382 152)"
       id="text27">Raw training data</text>
    <text
       font-family="Calibri,Calibri_MSFontService,sans-serif"
       font-weight="400"
       font-size="13"
       transform="translate(229.049 168)"
       id="text29">(70% of individuals)</text>
    <path
       d="M216 56.6669C216 51.328 220.328 47 225.667 47L337.333 47C342.672 47 347 51.328 347 56.6669L347 95.3331C347 100.672 342.672 105 337.333 105L225.667 105C220.328 105 216 100.672 216 95.3331Z"
       stroke="#000000"
       stroke-width="2"
       stroke-miterlimit="8"
       fill="none"
       fill-rule="evenodd"
       id="path31" />
    <text
       font-family="Calibri,Calibri_MSFontService,sans-serif"
       font-weight="400"
       font-size="13"
       transform="translate(236.715 72)"
       id="text33">Raw testing data</text>
    <text
       font-family="Calibri,Calibri_MSFontService,sans-serif"
       font-weight="400"
       font-size="13"
       transform="translate(229.049 88)"
       id="text35">(30% of individuals)</text>
    <path
       d="M192 114 205.326 114 205.326 155.852 204.326 154.852 209.985 154.852 209.985 156.852 203.326 156.852 203.326 115 204.326 116 192 116ZM208.652 151.852 216.652 155.852 208.652 159.852Z"
       id="path37" />
    <path
       d="M0-1 13.326-1 13.326 39.4549 12.326 38.4549 17.9852 38.4549 17.9852 40.4549 11.326 40.4549 11.326 0 12.326 1 0 1ZM16.6519 35.4549 24.6519 39.4549 16.6519 43.4549Z"
       transform="matrix(1 0 0 -1 192 115.455)"
       id="path39" />
    <path
       d="M228 252.667C228 247.328 232.328 243 237.667 243L337.333 243C342.672 243 347 247.328 347 252.667L347 291.333C347 296.672 342.672 301 337.333 301L237.667 301C232.328 301 228 296.672 228 291.333Z"
       stroke="#000000"
       stroke-width="2"
       stroke-miterlimit="8"
       fill="none"
       fill-rule="evenodd"
       id="path41" />
    <text
       font-family="Calibri,Calibri_MSFontService,sans-serif"
       font-weight="400"
       font-size="13"
       transform="translate(240.29 260)"
       id="text43">Ranking variables</text>
    <text
       font-family="Calibri,Calibri_MSFontService,sans-serif"
       font-weight="400"
       font-size="13"
       transform="translate(250.537 276)"
       id="text45">based on Gini</text>
    <text
       font-family="Calibri,Calibri_MSFontService,sans-serif"
       font-weight="400"
       font-size="13"
       transform="translate(256.037 292)"
       id="text47">importance</text>
    <path
       d="M426 136.667C426 131.328 430.328 127 435.667 127L567.333 127C572.672 127 577 131.328 577 136.667L577 175.333C577 180.672 572.672 185 567.333 185L435.667 185C430.328 185 426 180.672 426 175.333Z"
       stroke="#000000"
       stroke-width="2"
       stroke-miterlimit="8"
       fill="none"
       fill-rule="evenodd"
       id="path49" />
    <text
       font-family="Calibri,Calibri_MSFontService,sans-serif"
       font-weight="400"
       font-size="13"
       transform="translate(439.155 152)"
       id="text51">Complete</text>
    <text
       font-family="Calibri,Calibri_MSFontService,sans-serif"
       font-weight="400"
       font-size="13"
       transform="translate(494.822 152)"
       id="text53">training</text>
    <text
       font-family="Calibri,Calibri_MSFontService,sans-serif"
       font-weight="400"
       font-size="13"
       transform="translate(539.655 152)"
       id="text55">data</text>
    <text
       font-family="Calibri,Calibri_MSFontService,sans-serif"
       font-weight="400"
       font-size="13"
       transform="translate(448.655 168)"
       id="text57">(70% of individuals)</text>
    <path
       d="M427 56.6669C427 51.328 431.328 47 436.667 47L568.333 47C573.672 47 578 51.328 578 56.6669L578 95.3331C578 100.672 573.672 105 568.333 105L436.667 105C431.328 105 427 100.672 427 95.3331Z"
       stroke="#000000"
       stroke-width="2"
       stroke-miterlimit="8"
       fill="none"
       fill-rule="evenodd"
       id="path59" />
    <text
       font-family="Calibri,Calibri_MSFontService,sans-serif"
       font-weight="400"
       font-size="13"
       transform="translate(442.605 72)"
       id="text61">Complete testing</text>
    <text
       font-family="Calibri,Calibri_MSFontService,sans-serif"
       font-weight="400"
       font-size="13"
       transform="translate(538.438 72)"
       id="text63">data</text>
    <text
       font-family="Calibri,Calibri_MSFontService,sans-serif"
       font-weight="400"
       font-size="13"
       transform="translate(449.771 88)"
       id="text65">(30% of individuals)</text>
    <path
       d="M347 155 419.231 155 419.231 157 347 157ZM417.898 152 425.898 156 417.898 160Z"
       id="path67" />
    <path
       d="M347 75 420.347 75.0001 420.347 77.0001 347 77ZM419.014 72.0001 427.014 76.0001 419.014 80.0001Z"
       id="path69" />
    <text
       font-family="Calibri,Calibri_MSFontService,sans-serif"
       font-weight="400"
       font-size="13"
       transform="translate(353.077 103)"
       id="text71">Missing data</text>
    <text
       font-family="Calibri,Calibri_MSFontService,sans-serif"
       font-weight="400"
       font-size="13"
       transform="translate(348.49 119)"
       id="text73">imputed using</text>
    <text
       font-family="Calibri,Calibri_MSFontService,sans-serif"
       font-weight="400"
       font-size="13"
       transform="translate(362.157 135)"
       id="text75">Rfimpute</text>
    <path
       d="M502.198 185 502.198 215.28 287 215.28 288 214.28 288 236.894 286 236.894 286 213.28 501.198 213.28 500.198 214.28 500.198 185ZM291 235.561 287 243.561 283 235.561Z"
       id="path77" />
    <text
       font-family="Calibri,Calibri_MSFontService,sans-serif"
       font-weight="400"
       font-size="13"
       transform="translate(370.656 234)"
       id="text79">RF classifier applied to</text>
    <text
       font-family="Calibri,Calibri_MSFontService,sans-serif"
       font-weight="400"
       font-size="13"
       transform="translate(361.57 250)"
       id="text81">generate Gini importance</text>
    <path
       d="M204 375.334C204 369.074 209.074 364 215.334 364L358.666 364C364.926 364 370 369.074 370 375.334L370 420.666C370 426.926 364.926 432 358.666 432L215.334 432C209.074 432 204 426.926 204 420.666Z"
       stroke="#000000"
       stroke-width="2"
       stroke-miterlimit="8"
       fill="none"
       fill-rule="evenodd"
       id="path83" />
    <text
       font-family="Calibri,Calibri_MSFontService,sans-serif"
       font-weight="400"
       font-size="13"
       transform="translate(248.478 386)"
       id="text85">Train Optimal:</text>
    <text
       font-family="Calibri,Calibri_MSFontService,sans-serif"
       font-weight="400"
       font-size="13"
       transform="translate(231.478 402)"
       id="text87">contains the optimal</text>
    <text
       font-family="Calibri,Calibri_MSFontService,sans-serif"
       font-weight="400"
       font-size="13"
       transform="translate(219.145 418)"
       id="text89">number of relevant traits</text>
    <text
       font-family="Calibri,Calibri_MSFontService,sans-serif"
       font-weight="400"
       font-size="13"
       transform="translate(104.738 320)"
       id="text91">Recursive Feature Elimination</text>
    <text
       font-family="Calibri,Calibri_MSFontService,sans-serif"
       font-weight="400"
       font-size="13"
       transform="translate(113.652 336)"
       id="text93">applied to identify optimal</text>
    <text
       font-family="Calibri,Calibri_MSFontService,sans-serif"
       font-weight="400"
       font-size="13"
       transform="translate(144.905 352)"
       id="text95">subset of traits</text>
    <path
       d="M0.999997-0.00231695 1.12985 56.0434-0.870142 56.048-0.999997 0.00231695ZM4.12676 54.7031 0.145302 62.7123-3.87322 54.7216Z"
       transform="matrix(-1 0 0 1 287.145 301)"
       id="path97" />
    <path
       d="M506 375.334C506 369.074 511.074 364 517.334 364L660.666 364C666.926 364 672 369.074 672 375.334L672 420.666C672 426.926 666.926 432 660.666 432L517.334 432C511.074 432 506 426.926 506 420.666Z"
       stroke="#000000"
       stroke-width="2"
       stroke-miterlimit="8"
       fill="none"
       fill-rule="evenodd"
       id="path99" />
    <text
       font-family="Calibri,Calibri_MSFontService,sans-serif"
       font-weight="400"
       font-size="13"
       transform="translate(552.945 386)"
       id="text101">Test Optimal:</text>
    <text
       font-family="Calibri,Calibri_MSFontService,sans-serif"
       font-weight="400"
       font-size="13"
       transform="translate(533.611 402)"
       id="text103">contains the</text>
    <text
       font-family="Calibri,Calibri_MSFontService,sans-serif"
       font-weight="400"
       font-size="13"
       transform="translate(603.445 402)"
       id="text105">optimal</text>
    <text
       font-family="Calibri,Calibri_MSFontService,sans-serif"
       font-weight="400"
       font-size="13"
       transform="translate(521.278 418)"
       id="text107">number of relevant traits</text>
    <path
       d="M578 75 590.567 75 590.567 357.749 588.567 357.749 588.567 76 589.567 77 578 77ZM593.567 356.416 589.567 364.416 585.567 356.416Z"
       id="path109" />
    <path
       d="M204 521.334C204 515.074 209.074 510 215.334 510L358.666 510C364.926 510 370 515.074 370 521.334L370 566.666C370 572.926 364.926 578 358.666 578L215.334 578C209.074 578 204 572.926 204 566.666Z"
       stroke="#000000"
       stroke-width="2"
       stroke-miterlimit="8"
       fill="none"
       fill-rule="evenodd"
       id="path111" />
    <text
       font-family="Calibri,Calibri_MSFontService,sans-serif"
       font-weight="400"
       font-size="13"
       transform="translate(251.728 532)"
       id="text113">Train Boruta:</text>
    <text
       font-family="Calibri,Calibri_MSFontService,sans-serif"
       font-weight="400"
       font-size="13"
       transform="translate(225.561 548)"
       id="text115">contains only the most</text>
    <text
       font-family="Calibri,Calibri_MSFontService,sans-serif"
       font-weight="400"
       font-size="13"
       transform="translate(245.641 564)"
       id="text117">divergent traits</text>
    <path
       d="M506 521.334C506 515.074 511.074 510 517.334 510L660.666 510C666.926 510 672 515.074 672 521.334L672 566.666C672 572.926 666.926 578 660.666 578L517.334 578C511.074 578 506 572.926 506 566.666Z"
       stroke="#000000"
       stroke-width="2"
       stroke-miterlimit="8"
       fill="none"
       fill-rule="evenodd"
       id="path119" />
    <text
       font-family="Calibri,Calibri_MSFontService,sans-serif"
       font-weight="400"
       font-size="13"
       transform="translate(556.195 532)"
       id="text121">Test Boruta:</text>
    <text
       font-family="Calibri,Calibri_MSFontService,sans-serif"
       font-weight="400"
       font-size="13"
       transform="translate(527.695 548)"
       id="text123">contains only the most</text>
    <text
       font-family="Calibri,Calibri_MSFontService,sans-serif"
       font-weight="400"
       font-size="13"
       transform="translate(547.775 564)"
       id="text125">divergent traits</text>
    <path
       d="M288 432 288 503.919 286 503.919 286 432ZM291 502.585 287 510.585 283 502.585Z"
       id="path127" />
    <path
       d="M590 432 590 503.919 588 503.919 588 432ZM593 502.585 589 510.585 585 502.585Z"
       id="path129" />
    <text
       font-family="Calibri,Calibri_MSFontService,sans-serif"
       font-weight="400"
       font-size="13"
       transform="translate(96.3173 458)"
       id="text131">Boruta algorithm applied to the</text>
    <text
       font-family="Calibri,Calibri_MSFontService,sans-serif"
       font-weight="400"
       font-size="13"
       transform="translate(93.8173 474)"
       id="text133">Train Optimal dataset to identify</text>
    <text
       font-family="Calibri,Calibri_MSFontService,sans-serif"
       font-weight="400"
       font-size="13"
       transform="translate(114.571 490)"
       id="text135">the most divergent traits</text>
    <text
       font-family="Calibri,Calibri_MSFontService,sans-serif"
       font-weight="400"
       font-size="13"
       transform="translate(121.847 598)"
       id="text137">RF classifier trained on</text>
    <text
       font-family="Calibri,Calibri_MSFontService,sans-serif"
       font-weight="400"
       font-size="13"
       transform="translate(116.934 614)"
       id="text139">the Train Boruta dataset</text>
    <path
       d="M122 679.167C122 675.209 125.209 672 129.167 672L233.833 672C237.791 672 241 675.209 241 679.167L241 707.833C241 711.791 237.791 715 233.833 715L129.167 715C125.209 715 122 711.791 122 707.833Z"
       stroke="#000000"
       stroke-width="2"
       stroke-miterlimit="8"
       fill="none"
       fill-rule="evenodd"
       id="path141" />
    <text
       font-family="Calibri,Calibri_MSFontService,sans-serif"
       font-weight="400"
       font-size="13"
       transform="translate(149.609 690)"
       id="text143">RF classifier</text>
    <text
       font-family="Calibri,Calibri_MSFontService,sans-serif"
       font-weight="400"
       font-size="13"
       transform="translate(163.943 706)"
       id="text145">model</text>
    <path
       d="M327 679.167C327 675.209 330.209 672 334.167 672L438.833 672C442.791 672 446 675.209 446 679.167L446 707.833C446 711.791 442.791 715 438.833 715L334.167 715C330.209 715 327 711.791 327 707.833Z"
       stroke="#000000"
       stroke-width="2"
       stroke-miterlimit="8"
       fill="none"
       fill-rule="evenodd"
       id="path147" />
    <text
       font-family="Calibri,Calibri_MSFontService,sans-serif"
       font-weight="400"
       font-size="13"
       transform="translate(348.027 690)"
       id="text149">GBM classifier</text>
    <text
       font-family="Calibri,Calibri_MSFontService,sans-serif"
       font-weight="400"
       font-size="13"
       transform="translate(369.194 706)"
       id="text151">model</text>
    <text
       font-family="Calibri,Calibri_MSFontService,sans-serif"
       font-weight="400"
       font-size="13"
       transform="translate(318.517 598)"
       id="text153">GBM classifier trained on</text>
    <text
       font-family="Calibri,Calibri_MSFontService,sans-serif"
       font-weight="400"
       font-size="13"
       transform="translate(320.43 614)"
       id="text155">the Train Boruta dataset</text>
    <path
       d="M0-1 48.1838-1 48.1838 99.2159 47.1838 98.2159 87.7009 98.2159 87.7009 100.216 46.1838 100.216 46.1838 0 47.1838 1 0 1ZM86.3676 95.2159 94.3676 99.2159 86.3676 103.216Z"
       transform="matrix(1.83697e-16 1 1 -1.83697e-16 287 578)"
       id="path157" />
    <path
       d="M288.036 578 288.036 626.184 181 626.184 182 625.184 182 665.701 180 665.701 180 624.184 287.036 624.184 286.036 625.184 286.036 578ZM185 664.368 181 672.368 177 664.368Z"
       id="path159" />
    <path
       d="M590.516 578 590.516 800.274 484.667 800.274 484.667 798.274 589.516 798.274 588.516 799.274 588.516 578ZM486 803.274 478 799.274 486 795.274Z"
       id="path161" />
    <path
       d="M295 765.167C295 755.686 302.686 748 312.167 748L460.833 748C470.314 748 478 755.686 478 765.167L478 833.833C478 843.314 470.314 851 460.833 851L312.167 851C302.686 851 295 843.314 295 833.833Z"
       stroke="#000000"
       stroke-width="2"
       stroke-miterlimit="8"
       fill="none"
       fill-rule="evenodd"
       id="path163" />
    <text
       font-family="Calibri,Calibri_MSFontService,sans-serif"
       font-weight="400"
       font-size="13"
       transform="translate(316.191 771)"
       id="text165">Compare the RF and GBM</text>
    <text
       font-family="Calibri,Calibri_MSFontService,sans-serif"
       font-weight="400"
       font-size="13"
       transform="translate(331.024 787)"
       id="text167">models using overall</text>
    <text
       font-family="Calibri,Calibri_MSFontService,sans-serif"
       font-weight="400"
       font-size="13"
       transform="translate(321.611 803)"
       id="text169">accuracy, precision, and</text>
    <text
       font-family="Calibri,Calibri_MSFontService,sans-serif"
       font-weight="400"
       font-size="13"
       transform="translate(316.111 819)"
       id="text171">recall as computed on the</text>
    <text
       font-family="Calibri,Calibri_MSFontService,sans-serif"
       font-weight="400"
       font-size="13"
       transform="translate(333.277 835)"
       id="text173">Test Boruta dataset</text>
    <path
       d="M0-1 85.3859-1 85.3859 107.183 83.3859 107.183 83.3859 0 84.3859 1 0 1ZM88.3859 105.85 84.3859 113.85 80.3859 105.85Z"
       transform="matrix(1.83697e-16 1 1 -1.83697e-16 181 715)"
       id="path175" />
    <path
       d="M387 715 387 741.213 385 741.213 385 715ZM390 739.88 386 747.88 382 739.88Z"
       id="path177" />
    <text
       font-family="Calibri,Calibri_MSFontService,sans-serif"
       font-weight="400"
       font-size="13"
       transform="translate(467.375 320)"
       id="text179">Dataset pruned to</text>
    <text
       font-family="Calibri,Calibri_MSFontService,sans-serif"
       font-weight="400"
       font-size="13"
       transform="translate(457.622 336)"
       id="text181">contain same traits as</text>
    <text
       font-family="Calibri,Calibri_MSFontService,sans-serif"
       font-weight="400"
       font-size="13"
       transform="translate(457.955 352)"
       id="text183">Train Optimal dataset</text>
    <text
       font-family="Calibri,Calibri_MSFontService,sans-serif"
       font-weight="400"
       font-size="13"
       transform="translate(463.646 458)"
       id="text185">Dataset pruned to</text>
    <text
       font-family="Calibri,Calibri_MSFontService,sans-serif"
       font-weight="400"
       font-size="13"
       transform="translate(453.892 474)"
       id="text187">contain same traits as</text>
    <text
       font-family="Calibri,Calibri_MSFontService,sans-serif"
       font-weight="400"
       font-size="13"
       transform="translate(457.479 490)"
       id="text189">Train Boruta dataset</text>
  </g>
</svg>
